<svg width="32768" height="32768" viewBox="0 0 32768 32768" fill="none" xmlns="http://www.w3.org/2000/svg">
<rect width="50000" height="50000" transform="scale(0.65536)" fill="white"/>
<rect x="10580.7" y="10558.5" width="354.085" height="354.085" stroke="#FDDD69" stroke-width="10"/>
<rect x="10580.7" y="21875.1" width="354.085" height="354.085" stroke="#21DA55" stroke-width="10"/>
<rect x="21621.7" y="10558.5" width="354.085" height="354.085" stroke="#FA4A4A" stroke-width="10"/>
<rect id="hint_sq" x="16272.6" y="16272.6" width="222.767" height="222.767" stroke="#696969" stroke-width="10"/>
<rect x="21621.7" y="21875.1" width="354.085" height="354.085" stroke="#005C83" stroke-width="10"/>
<path d="M14900.1 11864.7C15349.7 11864.7 15759.6 11924.8 16189.9 12060.7C16637.8 12202.1 17104.2 12250.6 17403.8 12645.5C17503.2 12776.6 17644.5 12876.1 17685.2 13043.9C17730.4 13230.7 17767.4 13460.3 17767.4 13650.8C17767.4 14027.9 17659.7 14563.3 17418 14867.9C16737.9 15725.4 15434 15591.9 14451.2 15591.9C13828.8 15591.9 13003.8 15652.8 12652.4 15008.6C12376.9 14503.5 12178.4 13897.7 12077.1 13334.7C12008.6 12954.4 11930 12539.2 12048.6 12161.9C12136.6 11881.8 12467.3 11761.9 12646.1 11567.6C12919.7 11270.2 13420.3 11109.5 13800 11008C14637.8 10784.1 15487.9 10555.9 16360.6 10555.9C17096.5 10555.9 17850.4 10515.4 18567.2 10710.8C18752.7 10761.4 18880.2 10877.1 19047.7 10952.7C19206.5 11024.4 19365.6 11096.9 19523.4 11167.7C19818.1 11299.8 20023.7 11585.3 20207.9 11837.8C20480.3 12211.5 20562.9 12609.5 20678.9 13048.6C20823 13594.2 20846.4 14151.6 20846.4 14716.2C20846.4 15325.4 20741.9 15892.8 20533.5 16465.9C20417.6 16784.5 20091.1 16930.1 19817.4 17087.1C19403.3 17324.9 18900.5 17358.7 18437.6 17423.8C18049.4 17478.4 17617.1 17450.1 17225.2 17439.6C16837.8 17429.3 16508.1 17343 16158.3 17191.5C16034.5 17137.8 15922.2 17027.6 15813.7 16948C15686.3 16854.6 15670.7 16739.6 15598.7 16609.8C15390.3 16233.5 15180.7 15864.2 15007.6 15468.6C14877.7 15171.8 14730.4 14884.8 14602.9 14586.6C14483.8 14307.8 14419.1 14013.2 14305.8 13736.2C13955.9 12881.1 13488.6 12064.4 13072.9 11241.9C12895 10890.1 12711.7 10537.4 12503.8 10201.9C12358.6 9967.48 12186.8 9639.17 11941.1 9496.92C11851.9 9445.29 11768.1 9417.89 11658.2 9417.89C11358.8 9417.89 11090.3 9364.94 10795.2 9477.95C10657.1 9530.83 10537.9 9579.01 10395.3 9617.05C10251.8 9655.31 10098.5 9850.65 9982.73 9941.08C9640.05 10208.8 9535.04 10653.9 9410.54 11044.4C9337.07 11274.8 9280.72 11513.1 9268.28 11755.6C9256.22 11990.8 9178.4 12205.9 9124.44 12433.7C9037.52 12800.8 9010.64 13126.6 9010.64 13502.3C9010.64 13978.6 9010.31 14442.3 9065.96 14915.3C9101.29 15215.7 9254.11 15494.9 9380.5 15765.7C9505.81 16034.2 9634.11 16289.4 9777.24 16548.1C9874.66 16724.2 9925.62 16908.8 10041.2 17077.7C10206.9 17319.6 10405.8 17535.5 10610.2 17744.7C10994.9 18138.2 11360.2 18532 11817.8 18848C13038.6 19690.9 14433.9 20056.3 15902.2 20030.3C16561 20018.6 17242.2 19935.5 17887.5 19805.8C18137.7 19755.5 18338.7 19763.5 18507.1 19559.3C18662.6 19370.6 18852 19207.5 18993.9 19009.2C19157.3 18780.8 19250.4 18519.6 19322.7 18250.5C19522.8 17505.7 19717.5 16703.7 19736.8 15930.1C19747 15524.2 19839.2 15131.6 19850.6 14725.7C19860.3 14384 19907.5 14048.7 19907.5 13704.6C19907.5 13314.9 19928.3 12919.2 19904.4 12530.2C19883.5 12191.3 19767.9 11874.5 19691 11547C19585.4 11097.3 19416.8 10664.3 19318 10214.5C19288.5 10080.6 19293.4 9935.05 19242.1 9806.72C19173.3 9634.78 19069.3 9479.93 19008.2 9304.08C18936.8 9098.99 18880.6 8957.54 18755.3 8777.73C18625.1 8590.93 18415.9 8417.41 18243.1 8268.77C17877.8 7954.39 17484.6 7883.89 17024.5 7770.86C16803.3 7716.54 16576.2 7758.02 16354.3 7710.8C16077.5 7651.91 15787.5 7694.77 15507.1 7679.19C15211.9 7662.79 14927 7625.45 14628.2 7625.45C14503.9 7625.45 14350.3 7720.45 14258.3 7796.16C14120.1 7910.04 13880.1 8127.44 13818.9 8295.64C13659.7 8733.62 13782 9161.89 13790.5 9604.4C13797.1 9948.13 13821.9 10304 13847.4 10647.6C13858.4 10797 13968.9 11018.6 14018.1 11166.1C14072.1 11328 14210.2 11516.3 14337.4 11630.8C14404.9 11691.6 14495.6 11728.8 14580.8 11757.2C14692.4 11794.4 14777.7 11864.7 14900.1 11864.7Z" stroke="#ECECEC" stroke-width="20" stroke-linecap="round"/>
<path d="M13794.2 22641.9C13794.2 22263.9 13878 21884.7 13956 21516.8C14042.8 21107.3 14028.5 20670.1 14165.6 20274.1C14287.7 19921.1 14418 19499.2 14680.3 19226.2C14880.5 19017.8 15173.1 18793.5 15467.1 18744.5C15914.7 18669.9 16380.6 18609.4 16834.9 18604.8C17325 18599.9 17815.4 18604.8 18305.6 18604.8C18892.4 18604.8 19491.2 18571.1 20074.1 18656.3C20194.9 18673.9 20295.5 18761.5 20412.4 18770.3C20525 18778.7 20641.4 18770.3 20754.3 18770.3C21050.8 18770.3 21243.3 18784.1 21493.3 18601.1C21873.5 18323 22241.3 18003.4 22647.8 17764.7C22797.8 17676.6 23241.3 17426.6 23429.1 17575.3C23582.4 17696.6 23711 17903.2 23820.7 18062.5C24026.6 18361.6 24235.6 18674.4 24399.8 18998.2C24743 19675.2 24936.9 20494.5 24997.3 21244.7C25017.2 21493 25012 21742.2 25012 21991.1C25012 22148.7 25038.2 22333.4 24997.3 22487.5C24922.8 22767.7 24767.1 23063.5 24589.1 23289C24446.5 23469.7 24178.8 23637.2 23967.8 23719.2C23348.7 23959.5 22672.2 24038.3 22017.3 24114.4C21555.6 24168.1 21008.2 24237.9 20542.9 24160.4C20223.6 24107.2 19922.6 23962.7 19609 23886.5C19419.6 23840.4 19327.3 23641.5 19188 23502.2C19029.4 23343.6 18751.8 23115.6 18691.6 22890.1C18577.2 22460.9 18859.3 22088.3 19029.9 21730C19117.1 21547 19148.1 21202.2 19022.5 21027.8C18894.3 20849.7 18634.3 20808.6 18430.6 20772.3C18252.4 20740.4 18073.4 20698.9 17891.9 20691.4C17584.7 20678.6 17282.1 20623.3 16976.4 20623.3C16673.3 20623.3 16513.5 20532.2 16309.1 20303.5C16022.6 19982.9 15830.7 19545.9 15636.3 19163.7C15537.7 18969.9 15395.9 18787 15316.4 18586.4C15213.2 18326.1 14995.2 18183.1 14853.1 17961.4C14759.3 17815.1 14597.5 17638.3 14422.9 17586.4C14200.7 17520.3 14000.7 17432.7 13772.2 17380.5C13425.8 17301.3 13089.9 17281.2 12735.3 17281.2C12337.4 17281.2 11938.2 17271.9 11540.4 17281.2C11133.9 17290.6 10705.2 17517.1 10339.9 17672.8C10128.9 17762.7 9925.73 17835.4 9720.39 17941.2C9526.08 18041.3 9321.61 18089.7 9159.68 18240.8C8960.96 18426.3 8770.68 18634.6 8602.66 18849.3C8295.05 19242.4 8102.2 19669.9 7951.87 20149C7839.28 20507.9 7740.08 21091.1 7878.34 21461.6C7991.23 21764.2 8118.39 22071.6 8249.69 22366.1C8300.96 22481.1 8391.2 22579.7 8426.17 22700.7C8462.36 22826 8590.54 22872.9 8628.39 22991.2C8757.52 23394.7 9209.8 23866.9 9540.23 24127.3C9806.71 24337.2 10064.7 24746.5 10411.6 24833.2C12006 25231.8 13554.5 24528 15150.9 24528C16352.6 24528 17471.4 24927.6 18658.5 25031.8C19265.4 25085 19887.9 25123.7 20496.9 25123.7C21321.1 25123.7 22164.5 25174.7 22986.1 25109C23627.2 25057.7 24681.1 24938.5 24681.1 24094.2C24681.1 23963.4 24699.3 23814.5 24679.2 23684.2C24656 23533.4 24562.8 23395.3 24513.8 23252.2C24416.6 22968.7 24290 22697.1 24201.2 22410.2C24147.5 22236.6 24085.7 22064.5 24019.2 21895.5C23946.1 21709.7 23939.2 21522.9 23883.2 21334.8C23778.1 20981.8 23684.3 20627.4 23557.8 20279.6C23471.8 20043.1 23435.6 19790.8 23339 19560.8C23111.4 19018.7 23043.1 18434.7 22886.8 17873.1C22783.8 17503 22726.3 17124.2 22622.1 16755.4C22537 16454.4 22468.3 16124.3 22464 15810.5C22459.9 15512.8 22464 15214.7 22464 14917C22464 14269.8 22633.3 13688 22824.3 13073.2C23088.7 12222.2 23410.1 11369.9 23552.3 10486.6C23586.6 10273.5 23589.1 10064.8 23589.1 9850.49C23589.1 9694.6 23536.7 9557.52 23522.9 9405.6C23477.4 8905.77 23113.8 8448.55 22761.8 8115.07C22578.4 7941.33 22344.2 7856.53 22100 7798.87C21454.2 7646.38 20728.3 7558.48 20068.6 7688.56C19579 7785.09 18850.8 7965.96 18695.3 8510.32C18614.8 8792.12 18645 9015.41 18419.6 9232.8C18108.7 9532.55 17693 9680.46 17272.4 9729.16C16817.1 9781.88 16377.7 9802.69 15919.4 9802.69C15686.8 9802.69 15453.4 9808.23 15220.8 9802.69C15039.5 9798.37 14872.7 9736.51 14687.7 9736.51C14297.4 9736.51 13944.5 9590.64 13558.9 9569.22C13334.6 9556.76 13075.8 9442.18 12867.7 9354.13C12445.4 9175.49 12071 8904.98 11661.7 8694.15C11219.9 8466.57 10831.7 8143.26 10336.2 8048.88C10169.7 8017.16 10015.2 7923.81 9843.56 7883.43C9705.9 7851.04 9569.51 7817.25 9426.25 7817.25C8909.57 7817.25 8322.78 7625.53 7986.8 8148.16C7905.19 8275.11 7837.89 8415.15 7837.89 8561.79C7837.89 8850.81 7771.71 9138.38 7771.71 9423.99C7771.71 10289.2 7771.71 11154.5 7771.71 12019.8C7771.71 12932.8 7771.71 13845.9 7771.71 14758.9C7771.71 15277.4 7708.09 15837.9 7788.26 16351C7881.98 16950.8 8241.38 17423.9 8630.23 17875C9034.65 18344.1 9409.75 18818.6 9885.84 19222.5C10184.2 19475.6 10512.4 19697 10830.8 19917.4C11397.9 20310 12003.6 20710.6 12437.5 21259.4C12653.5 21532.6 12814.7 21862.9 12950.4 22182.3C13015.8 22336.1 13175.5 22939.7 13413.7 22939.7C13566.1 22939.7 13741 22801.4 13794.2 22641.9Z" stroke="#ECECEC" stroke-width="20" stroke-linecap="round"/>
<path d="M10133.8 12135.3C8879.65 12135.3 8215.61 12105.4 6981.11 11766.9C6469.02 11626.5 6102.44 11347.5 5638.94 11084.2C5373.18 10933.2 5115.69 10686.2 4911.92 10462C4408.28 9908.02 3941.56 9317.47 3718.88 8593.23C3427.69 7646.17 3275.59 6527.55 3614.02 5568.67C3817.6 4991.84 4004.02 4658.02 4497.15 4287.07C5191.39 3764.86 6113.45 3490.06 6936.84 3254.81C7987.8 2954.53 9045.03 2837.71 10133.8 2837.71C10642.3 2837.71 11185.9 2781.96 11690.4 2854.02C12558.8 2978.08 13427.8 3219.66 14288.5 3392.29C15874.7 3710.42 17453.1 4120.3 19056 4347.66C19794.4 4452.39 20519.7 4630.69 21258.1 4739.13C21814.2 4820.8 22378.2 4839.32 22933.4 4920.88C23732.1 5038.2 24533.6 5051.25 25328.9 4850.97C26003.8 4680.98 26638.6 4599.32 27335.1 4599.32C27585.4 4599.32 28059.8 4507.4 28288.2 4641.26C28464.9 4744.87 28614.3 4891.92 28719.3 5065.35C29051.1 5613.65 29352.5 6196.24 29700.3 6733.75C29891.8 7029.84 30231.1 7684.69 29884.3 7978.06C29589.1 8227.91 28959.2 8147.87 28609.7 8113.21C27605.2 8013.59 26719 7453.37 25934.7 6861.91C23925.7 5346.93 22509.8 3217.8 20526.4 1688.94C19707.4 1057.61 18748.2 840.782 17741.8 689.293C17086.1 590.573 16448.2 572.784 15786.8 572.784C15324.7 572.784 14841.8 534.365 14381.7 591.426C14116.2 624.355 13911.4 696.793 13678 824.443C13388.4 982.862 13075.5 1084.11 12783.2 1239.21C12509.1 1384.67 12252.9 1534.64 11993.3 1705.25C11740.1 1871.63 11473.2 1971.75 11254.6 2180.6C11003.4 2420.69 10701.2 2605.47 10462.4 2863.34C10018.3 3342.94 9537 3788.14 9108.56 4284.74C8625.82 4844.28 8192.95 5446.17 7717.45 6011.4C7339.74 6460.37 6957.77 6939.27 6675.86 7456.1C6393.57 7973.64 5971.86 8388.72 5718.16 8933.43C5434.87 9541.68 5028.25 10167 4869.98 10820.9C4784.29 11174.9 4714.27 11531.6 4618.32 11883.4C4497.97 12324.7 4477.73 12780.5 4359.67 13220.9C4245.36 13647.4 4120.65 14060.8 4026.46 14493.2C3941.36 14883.9 3913.6 15314.6 3802.76 15695.6C3608.41 16363.7 3554.94 17219.9 3686.25 17909.2C3744.47 18214.8 3895.27 18573 4105.68 18808.7C4321.71 19050.6 4565.47 19322.4 4746.48 19594C4871.27 19781.1 5106.93 20046 5287.08 20181.2C5522.85 20358 5693.08 20562.4 5960.5 20696.1C6367.51 20899.6 6751.36 21057 7218.79 21082.9C7448.59 21095.7 7645.54 21195.7 7896.87 21162.2C8156.62 21127.5 8429.47 21082.7 8686.8 21031.7C8964.72 20976.5 9272.77 20962.7 9539.64 20868.6C10038 20692.7 10274 20383.6 10597.5 19987.8C11021.8 19468.6 11503.3 19001.7 11825.5 18403.2C12160 17782 12388.3 17227.9 12191.4 16529.8C12080.4 16136.4 11828.1 15802.4 11674.1 15425.3C11555.8 15135.7 11455.7 14809.2 11287.3 14544.5C11120.8 14282.9 10963.6 13949.8 10709.4 13761.5C10556.9 13648.6 10591.3 12961.8 10462.4 12819.3C10377.3 12725.3 10226.3 12216.9 10133.8 12135.3Z" stroke="#ECECEC" stroke-width="20" stroke-linecap="round"/>
<path d="M5918.56 18608.3C5641.28 18978 5427.7 19451.9 5205.52 19857.3C4967.11 20292.3 4734.39 20742.5 4518.12 21187.8C4307.7 21621 4246.07 22151.5 4135.98 22613.9C4037.69 23026.7 3873.9 23399.7 3863.35 23832.5C3844.37 24610.7 3858.64 25343.9 4073.06 26097.5C4181.34 26478 4309.05 26868.7 4543.76 27192.6C4900.7 27685.2 5383.36 28106.3 5809.04 28539.5C6262.99 29001.4 6855.63 29348.8 7428.51 29639.3C8047.24 29953 8636.03 30277.1 9318.27 30431.6C11261.4 30871.5 13260.7 31065.4 15248.6 31065.4C15819.7 31065.4 16290.4 30835.8 16802.8 30599.3C17392.5 30327.2 17925.4 29965.9 18464.2 29606.7C19066.5 29205.2 19738.3 28950 20365.6 28595.4C20966.3 28255.9 21682.5 28003 22348.6 27831.1C23357.2 27570.8 24309.3 27250.4 25361.5 27183.3C26028.5 27140.8 26695.7 27152.6 27363.1 27101.8C27941.7 27057.7 28553.6 26971.9 29127 27106.4C29777.7 27259 30362.7 27655.6 30846.7 28110.7C31232.3 28473.3 31599.4 28944.6 31587.7 29499.5C31574.1 30147.3 30948 30703 30431.9 30988.5C29406.9 31555.5 28137.3 31800.4 26974 31820.3C25778.7 31840.8 24573.5 31708.3 23427.4 31359C22165.8 30974.4 21059.4 30195.6 19869.3 29646.3C19475.8 29464.7 19085.9 29289.8 18701.9 29089.4C18181.9 28818 17615.7 28672.1 17080.1 28436.9C16197.2 28049.3 15292.4 27771.6 14381.7 27458.3C13941 27306.6 13552.5 27164.7 13090.8 27080.8C12805 27028.8 12529.6 26969.1 12238 26955C12074.3 26947 11820.4 26899.5 11662.4 26850.1C11520.3 26805.7 11328.4 26814.2 11180.1 26796.5C10379.4 26700.9 9542.64 26661.4 8745.05 26661.4C8402 26661.4 8066.04 26619.4 7722.11 26619.4C7264.05 26619.4 6815.3 26696.9 6361.29 26703.3C5420.01 26716.6 4433.65 26814.1 3676.93 26137.1C2893.74 25436.3 2536.46 24330.3 2111.06 23394.5C1899.79 22929.7 1766.2 22217.7 1766.2 21714.4C1766.2 20912.3 1894.37 20216.1 2104.07 19447.2C2273.11 18827.3 2892.96 18394.8 3327.41 17969.8C3629.16 17674.6 4086.88 17359.1 4525.12 17350C5025.31 17339.6 5850.33 17395.6 6172.54 17878.9C6475.97 18334.1 6121.7 18303.6 5918.56 18608.3Z" stroke="#ECECEC" stroke-width="20" stroke-linecap="round"/>
<path d="M21724.7 8737.18C22121.3 8660.91 22514.3 8807 22914.8 8868.19C23245.1 8918.65 23607.8 8975.73 23926.1 9077.9C24391.9 9227.41 24863.2 9296.62 25328.9 9455.39C25749.9 9598.92 26135.3 9801.74 26545.2 9972.69C26990.1 10158.2 27436.5 10322 27873.4 10527.3C28363.7 10757.5 28798.6 11052.3 29029.2 11571.2C29174.6 11898.5 29280.8 12195.7 29280.8 12559.2C29280.8 13010.6 28881.2 13423.8 28577.1 13714.9C28203.5 14072.7 27819.5 14434.4 27416.7 14758.9C27194.2 14938.1 27028.1 15198.7 26824.8 15402C26608.6 15618.2 26398 15873.3 26242.3 16138.3C25918.2 16690.2 25587.6 17403.3 25832.2 18049.1C26045.2 18611.5 26171.1 19322.5 26605.8 19773.4C27243.2 20434.4 28000.4 20929.9 28819.5 21343.9C29340.2 21607.1 29826.1 22033 30152.3 22509C30422.6 22903.3 30633.1 23348.6 30800.1 23795.2C30985.2 24290.3 31007.9 24832.3 31107.7 25347.1C31233.8 25997.7 31365.7 26670.9 31065.7 27295.2C30868.7 27705.1 30414.4 28027.5 30017.2 28217.9C28992.4 28709.2 27810.8 28896.4 26694.3 29047.4C26188.2 29115.9 25654.1 29177.9 25142.5 29177.9C24975.1 29177.9 24829.2 29114.3 24667.1 29094.1C24437.5 29065.4 24328.1 28795.2 24243 28614C23977.1 28048 23866.7 27449.6 23781.6 26833.8C23645.8 25850.2 23853 24823.4 24424.8 24005C24787.5 23485.8 25148.3 22944.6 25659.7 22564.9C26448 21979.7 27244.3 21447.4 28073.8 20924.5C28545.5 20627.1 28851.9 20247.5 29113.1 19768.7C29396.6 19248.8 29624.5 18598 29690.9 18007.1C29737.4 17594 29840.6 17258.6 29826.1 16837.4C29817.1 16576.4 29369 16204.9 29210.9 16012.5C28813.8 15529 28439.5 14983.2 27989.9 14549.1C27667.7 14238 27377.3 13819.5 26946 13659C26596 13528.8 26204.5 13521.5 25850.8 13416.7C25454.3 13299.2 25007.5 13252.7 24601.9 13165C23673 12964.2 22758.8 13085.9 21945.5 12512.6C21554.5 12237 21092.2 11983.2 20943.5 11496.6C20838.6 11153.4 20675.3 10874.8 20733.8 10494.6C20846.5 9761.74 21319.3 9277.75 21724.7 8737.18Z" stroke="#ECECEC" stroke-width="20" stroke-linecap="round"/>
</svg>
