<svg width="19200" height="10270" viewBox="0 0 19200 10270" fill="none" xmlns="http://www.w3.org/2000/svg">
<rect x="50" y="50" width="19100" height="10170" fill="white"/>
<rect x="50" y="50" width="19100" height="10170" stroke="black" stroke-width="100"/>
<path fill-rule="evenodd" clip-rule="evenodd" d="M2406.67 872.273H4206.67V3672.27H3203.61V3772.27H4206.67H4306.67V3672.27V872.273V772.273H4206.67H2406.67H2306.67V872.273V3672.27V3772.27H2406.67H2409.36V3672.27H2406.67V872.273Z" fill="black"/>
<path fill-rule="evenodd" clip-rule="evenodd" d="M5290.69 872.273H7090.69V3672.27H6587.81V3772.27H7090.69H7190.69V3672.27V872.273V772.273H7090.69H5290.69H5190.69V872.273V3672.27V3772.27H5290.69H5793.56V3672.27H5290.69V872.273Z" fill="black"/>
<path fill-rule="evenodd" clip-rule="evenodd" d="M8348.38 872.273H12450.8V3672.27H9142.68V3772.27H12450.8H12550.8V3672.27V872.273V772.273H12450.8H8348.38H8248.38V872.273V3672.27V3772.27H8348.38H8348.43V3672.27H8348.38V872.273Z" fill="black"/>
<path fill-rule="evenodd" clip-rule="evenodd" d="M13113.3 872.273H16793.3V2545.77H15350.4V2645.77H16793.3H16893.3V2545.77V872.273V772.273H16793.3H13113.3H13013.3V872.273V2545.77V2645.77H13113.3H14556.2V2545.77H13113.3V872.273Z" fill="black"/>
<path fill-rule="evenodd" clip-rule="evenodd" d="M13097 5538.07H11580.2H11480.2V5638.07V9438.07V9538.07H11580.2H15577.8H15677.8V9438.07V5638.07V5538.07H15577.8H13891.3V5638.07H15577.8V9438.07H11580.2V5638.07H13097V5538.07Z" fill="#0079AD"/>
<path fill-rule="evenodd" clip-rule="evenodd" d="M8601.25 7638.07H10401.2V8186.45H10501.2V7638.07V7538.07H10401.2H8601.25H8501.25V7638.07V9438.07V9538.07H8601.25H10401.2H10501.2V9438.07V8980.7H10401.2V9438.07H8601.25V7638.07Z" fill="black"/>
<path fill-rule="evenodd" clip-rule="evenodd" d="M5125.12 6538.07H3622.25H3522.25V6638.07V9438.07V9538.07H3622.25H7422.25H7522.25V9438.07V6638.07V6538.07H7422.25H5919.38V6638.07H7422.25V9438.07H3622.25V6638.07H5125.12V6538.07Z" fill="black"/>
</svg>
