<svg width="20000" height="20000" viewBox="0 0 20000 20000" fill="none" xmlns="http://www.w3.org/2000/svg">
<rect x="52.0833" y="52.0833" width="19895.8" height="19895.8" fill="white"/>
<rect id="border" x="52.0833" y="52.0833" width="19895.8" height="19895.8" stroke="black" stroke-width="104.167"/>
<path id="r7" fill-rule="evenodd" clip-rule="evenodd" d="M1132.72 11209L1132.72 8791.03L7527.42 8791.03L7527.42 10142.2L7656.26 10142.2L7656.26 8791.03L7656.26 8662.19L7527.42 8662.19L1132.72 8662.19L1003.88 8662.19L1003.88 8791.03L1003.88 11209L1003.88 11337.8L1132.72 11337.8L7527.42 11337.8L7656.26 11337.8L7656.26 11209L7656.26 11204.7L7527.42 11204.7L7527.42 11209L1132.72 11209Z" fill="black"/>
<path id="r3" fill-rule="evenodd" clip-rule="evenodd" d="M18758.2 8791.04L18758.2 11209L12472.6 11209L12472.6 10531.3L12343.8 10531.3L12343.8 11209L12343.8 11337.8L12472.6 11337.8L18758.2 11337.8L18887.1 11337.8L18887.1 11209L18887.1 8791.04L18887.1 8662.2L18758.2 8662.2L12472.6 8662.2L12343.8 8662.2L12343.8 8791.04L12343.8 9468.72L12472.6 9468.72L12472.6 8791.04L18758.2 8791.04Z" fill="black"/>
<path id="Subtract" fill-rule="evenodd" clip-rule="evenodd" d="M14702.1 3625.42L14702.1 5704.51L12472.6 5704.51L12472.6 3625.42L12891.8 3625.42L12891.8 3496.59L12472.6 3496.59L12343.7 3496.59L12343.7 3625.42L12343.7 5704.51L12343.7 5833.35L12472.6 5833.35L14702.1 5833.35L14831 5833.35L14831 5704.51L14831 3625.42L14831 3496.59L14702.1 3496.59L14282.9 3496.59L14282.9 3625.42L14702.1 3625.42Z" fill="black"/>
<path id="Subtract_2" fill-rule="evenodd" clip-rule="evenodd" d="M18758.2 2523.58L18887 2523.58L18887 1338.2L18887 1209.36L18758.2 1209.36L15191.2 1209.36L15062.4 1209.36L15062.4 1338.2L15062.4 5704.5L15062.4 5833.34L15191.2 5833.34L18758.2 5833.34L18887 5833.34L18887 5704.5L18887 4519.12L18758.2 4519.12L18758.2 5704.5L15191.2 5704.5L15191.2 1338.2L18758.2 1338.2L18758.2 2523.58Z" fill="black"/>
<path id="r4" fill-rule="evenodd" clip-rule="evenodd" d="M12658.1 11746.6H12314.6H12185.8V11875.4V18980.5V19109.4H12314.6H18909.3H19038.1V18980.5V11875.4V11746.6H18909.3H13600.5V11875.4H18909.3V18980.5H12314.6V11875.4H12658.1V11746.6Z" fill="black"/>
<path id="r5" fill-rule="evenodd" clip-rule="evenodd" d="M8888.33 15482.8L8888.33 12472.6L9692.01 12472.6L9692.01 12343.7L8888.33 12343.7L8759.5 12343.7L8759.5 12472.6L8759.5 15482.8L8759.5 15611.7L8888.33 15611.7L11724.2 15611.7L11853.1 15611.7L11853.1 15482.8L11853.1 12472.6L11853.1 12343.7L11724.2 12343.7L10920.5 12343.7L10920.5 12472.6L11724.2 12472.6L11724.2 15482.8L8888.33 15482.8Z" fill="black"/>
<path id="r6" fill-rule="evenodd" clip-rule="evenodd" d="M7656.26 11746.6H1132.72H1003.88V11875.4V15482.8V15611.7H1132.72H8294.78H8423.62V15482.8V12034.2H8294.78V15482.8H1132.72V11875.4H7656.26V11746.6Z" fill="black"/>
<path id="Subtract_3" fill-rule="evenodd" clip-rule="evenodd" d="M1132.73 16085.3H11752.3V18980.5H6396.95V19109.4H11752.3H11881.1V18980.5V16085.3V15956.4H11752.3H1132.73H1003.89V16085.3V18980.5V19109.4H1132.73H3092.57V18980.5H1132.73V16085.3Z" fill="black"/>
<path id="Subtract_4" fill-rule="evenodd" clip-rule="evenodd" d="M1132.72 1107.33H7965.31V3988.86H4001.01L4001.01 4117.69H7965.31H8094.14V3988.86V1107.33V978.492H7965.31H1132.72H1003.88V1107.33V3988.86V4117.69H1132.72H2685.14V3988.86H1132.72V1107.33Z" fill="black"/>
<path id="r8" fill-rule="evenodd" clip-rule="evenodd" d="M4714.52 4697.51H7965.31V8132.91H7716.68V8261.75H7965.31H8094.14V8132.91V4697.51V4568.67H7965.31H4714.52H4585.68V4697.51V8132.91V8261.75H4714.52H7220.16V8132.91H4714.52V4697.51Z" fill="black"/>
<path id="r1" fill-rule="evenodd" clip-rule="evenodd" d="M8552.45 1107.33H11955.1V7527.42H9217.29V7656.25H11955.1H12083.9V7527.42V1107.33V978.492H11955.1H8552.45H8423.61V1107.33V7527.42V7656.25H8551.65V7322.37H8552.45V1107.33Z" fill="black"/>
<path id="r2" fill-rule="evenodd" clip-rule="evenodd" d="M12472.6 6265.52H18758.2V8132.9H12589.8V8133.43H12343.7V8261.74H12472.6H18758.2H18887V8132.9V6265.52V6136.69H18758.2H12472.6H12343.7V6265.52V7442.06H12472.6V6265.52Z" fill="black"/>
<path id="Subtract_5" fill-rule="evenodd" clip-rule="evenodd" d="M1133.75 6271.11H1132.01H1003.88V6399.23V8133.6V8261.73H1132.01H4049.96H4178.08V8133.6V6399.23V6271.11H4049.96H2715.21V6399.23H4049.96V8133.6H1132.01V6399.23H1133.75V6271.11Z" fill="black"/>
<circle id="c14" cx="9821.89" cy="1903" r="268.004" fill="white"/>
<circle id="c13" cx="11038.7" cy="2388.17" r="214.994" fill="white"/>
<circle id="c12" cx="10579.2" cy="3496.43" r="138.565" fill="white"/>
<circle id="c11" cx="9659.06" cy="2846.51" r="405.334" fill="white"/>
<circle id="c21" cx="17003.1" cy="6849.07" r="219.066" fill="white"/>
<circle id="c22" cx="17571.2" cy="7197.25" r="240.956" fill="white"/>
<circle id="c23" cx="17348.9" cy="7667.07" r="155.573" fill="white"/>
<circle id="c24" cx="16691.3" cy="7172.57" r="57.4297" fill="white"/>
<circle id="c31" cx="16326.8" cy="9572.43" r="124.574" fill="white"/>
<circle id="c51" cx="9711.8" cy="14772.8" r="28.7852" fill="white"/>
<circle id="c41" cx="15804.8" cy="16990.9" r="273.024" transform="rotate(-60 15804.8 16990.9)" fill="white"/>
<circle id="c32" cx="17019.8" cy="9973.14" r="202.372" fill="white"/>
<circle id="c52" cx="9860.63" cy="15052.5" r="55.39" fill="white"/>
<circle id="c42" cx="17324.7" cy="16085.5" r="443.531" transform="rotate(-60 17324.7 16085.5)" fill="white"/>
<circle id="c33" cx="16723" cy="10470.3" r="177.557" fill="white"/>
<circle id="c53" cx="9616.01" cy="15309" r="35.0183" fill="white"/>
<circle id="c43" cx="18073" cy="17643.2" r="389.144" transform="rotate(-60 18073 17643.2)" fill="white"/>
<circle id="c34" cx="16265.3" cy="10000" r="243.2" fill="white"/>
<circle id="c54" cx="9437.61" cy="15020.1" r="121.6" fill="white"/>
<circle id="c44" cx="16697.3" cy="18387.4" r="236.045" transform="rotate(-60 16697.3 18387.4)" fill="white"/>
<circle id="c64" cx="5818.61" cy="14141.5" r="163.816" fill="white"/>
<circle id="c63" cx="6242.71" cy="14630.3" r="201.977" fill="white"/>
<circle id="c62" cx="5724.21" cy="14965.3" r="212.401" fill="white"/>
<circle id="c61" cx="5303.73" cy="14872.7" r="59.0469" fill="white"/>
<circle id="c74" cx="2443.51" cy="9447.51" r="443.35" fill="white"/>
<circle id="c73" cx="3485.01" cy="9757.32" r="214.994" fill="white"/>
<circle id="c72" cx="3025.43" cy="10865.6" r="138.565" fill="white"/>
<circle id="c71" cx="1780.99" cy="10683.9" r="80.9883" fill="white"/>
<circle id="c84" cx="6028.54" cy="6309.83" r="93.832" fill="white"/>
<circle id="c83" cx="6397.89" cy="6608.85" r="33.2649" fill="white"/>
<circle id="c82" cx="6189.15" cy="6721.28" r="94.718" fill="white"/>
<circle id="c81" cx="5881.91" cy="6478.75" r="37.2487" fill="white"/>
<defs>
<filter id="filter0_d_135_187" x="12181.6" y="11746.6" width="6860.64" height="7371.11" filterUnits="userSpaceOnUse" color-interpolation-filters="sRGB">
<feFlood flood-opacity="0" result="BackgroundImageFix"/>
<feColorMatrix in="SourceAlpha" type="matrix" values="0 0 0 0 0 0 0 0 0 0 0 0 0 0 0 0 0 0 127 0" result="hardAlpha"/>
<feOffset dy="4.16667"/>
<feGaussianBlur stdDeviation="2.08333"/>
<feComposite in2="hardAlpha" operator="out"/>
<feColorMatrix type="matrix" values="0 0 0 0 0 0 0 0 0 0 0 0 0 0 0 0 0 0 0.25 0"/>
<feBlend mode="normal" in2="BackgroundImageFix" result="effect1_dropShadow_135_187"/>
<feBlend mode="normal" in="SourceGraphic" in2="effect1_dropShadow_135_187" result="shape"/>
</filter>
</defs>
</svg>
