<svg width="30400" height="30400" viewBox="0 0 30400 30400" fill="none" xmlns="http://www.w3.org/2000/svg">
<rect x="100" y="100" width="30200" height="30200" fill="white"/>
<rect x="100" y="100" width="30200" height="30200" stroke="black" stroke-width="200"/>
<path id="r7" fill-rule="evenodd" clip-rule="evenodd" d="M1040.09 16404.3L1040.09 16604.3L1240.09 16604.3L12580.2 16604.3L12780.2 16604.3L12780.2 16404.3L12780.2 16107L12580.2 16107L12580.2 16204.3L12580.2 16404.3L12380.2 16404.3L1440.09 16404.3L1240.09 16404.3L1240.09 16204.3L1240.09 14195.7L1240.09 13995.7L1440.09 13995.7L12380.2 13995.7L12580.2 13995.7L12580.2 14195.7L12580.2 15150.5L12780.2 15150.5L12780.2 13995.7L12780.2 13795.7L12580.2 13795.7L1240.09 13795.7L1040.09 13795.7L1040.09 13995.7L1040.09 16404.3Z" fill="black"/>
<path id="r3" fill-rule="evenodd" clip-rule="evenodd" d="M29431.9 14008.2L29431.9 13808.2L29231.9 13808.2L17829.3 13808.2L17629.3 13808.2L17629.3 14008.2L17629.3 14731.5L17829.3 14731.5L17829.3 14208.2L17829.3 14008.2L18029.3 14008.2L29031.9 14008.2L29231.9 14008.2L29231.9 14208.2L29231.9 16207.5L29231.9 16407.5L29031.9 16407.5L18029.3 16407.5L17829.3 16407.5L17829.3 16207.5L17829.3 15684.3L17629.3 15684.3L17629.3 16407.5L17629.3 16607.5L17829.3 16607.5L29231.9 16607.5L29431.9 16607.5L29431.9 16407.5L29431.9 14008.2Z" fill="black"/>
<path id="Subtract" fill-rule="evenodd" clip-rule="evenodd" d="M21998.7 4769.5L21998.7 4569.5L21798.7 4569.5L20922.9 4569.5L20922.9 4769.5L21598.7 4769.5L21798.7 4769.5L21798.7 4969.5L21798.7 7584.21L21798.7 7784.21L21598.7 7784.21L18024.3 7784.21L17824.3 7784.21L17824.3 7584.21L17824.3 4969.5L17824.3 4769.5L18024.3 4769.5L18700 4769.5L18700 4569.5L17824.3 4569.5L17624.3 4569.5L17624.3 4769.5L17624.3 7784.21L17624.3 7984.21L17824.3 7984.21L21798.7 7984.21L21998.7 7984.21L21998.7 7784.21L21998.7 4769.5Z" fill="black"/>
<path id="Subtract_2" fill-rule="evenodd" clip-rule="evenodd" d="M29206.6 3029.39L29406.6 3029.39L29406.6 1136.47L29406.6 936.469L29206.6 936.469L23192.5 936.469L22992.5 936.469L22992.5 1136.47L22992.5 7796.53L22992.5 7996.53L23192.5 7996.53L29206.6 7996.53L29406.6 7996.53L29406.6 7796.53L29406.6 5903.63L29206.6 5903.63L29206.6 7596.53L29206.6 7796.53L29006.6 7796.53L23392.5 7796.53L23192.5 7796.53L23192.5 7596.53L23192.5 1336.47L23192.5 1136.47L23392.5 1136.47L29006.6 1136.47L29206.6 1136.47L29206.6 1336.47L29206.6 3029.39Z" fill="black"/>
<path id="r5" fill-rule="evenodd" clip-rule="evenodd" d="M13800 24542.2L13800 24742.2L14000 24742.2L16400 24742.2L16600 24742.2L16600 24542.2L16600 17845.4L16600 17645.4L16400 17645.4L16057.1 17645.4L16057.1 17845.4L16200 17845.4L16400 17845.4L16400 18045.4L16400 24342.2L16400 24542.2L16200 24542.2L14200 24542.2L14000 24542.2L14000 24342.2L14000 18045.4L14000 17845.4L14200 17845.4L15104 17845.4L15104 17645.4L14000 17645.4L13800 17645.4L13800 17845.4L13800 24542.2Z" fill="black"/>
<path id="r6" fill-rule="evenodd" clip-rule="evenodd" d="M11310.1 17595H1207.21H1007.21V17795V24558.2V24758.2H1207.21H12612.4H12812.4V24558.2V17795V17595H12612.4V17795V17995L12612.4 18133.1L12612.4 24358.2V24558.2H12412.4H1407.21H1207.21V24358.2V17995V17795H1407.21H11310.1V17595Z" fill="black"/>
<path id="Subtract_3" fill-rule="evenodd" clip-rule="evenodd" d="M1160.63 25746H960.629V25946V29273.1V29473.1H1160.63H3867.48V29273.1H1360.63H1160.63V29073.1V26146V25946H1360.63H16210H16410V26146V29073.1V29273.1H16210H8500.09V29473.1H16410H16610V29273.1V25946V25746H16410H1160.63Z" fill="black"/>
<path id="Subtract_4" fill-rule="evenodd" clip-rule="evenodd" d="M1215.22 938.551H1015.22V1138.55V5904.83V6104.83H1215.22H3117.84V5904.83H1415.22H1215.22V5704.83V1338.55V1138.55H1415.22H12354.4H12554.4V1338.55V5704.83V5904.83H12354.4H5222.26V6104.83H12554.4H12754.4V5904.83V1138.55V938.551H12554.4H1215.22Z" fill="black"/>
<path id="r8" fill-rule="evenodd" clip-rule="evenodd" d="M5813.74 7107.8H5613.74V7307.8V12594.7V12794.7H5813.74H11170.3V12594.7H6013.74H5813.74V12394.7V7507.8V7307.8H6013.74H12414.5H12614.5V7507.8V12394.7V12594.7H12414.5H12117.8V12794.7H12614.5H12814.5V12594.7V7307.8V7107.8H12614.5H5813.74Z" fill="black"/>
<path id="r1" fill-rule="evenodd" clip-rule="evenodd" d="M14015.2 937.312H13815.2V1137.31V12582.9V12782.9H14015.2H14254.7V12582.9H14215.2H14015.2V12382.9V1337.31V1137.31H14215.2H16205.4H16405.4V1337.31V12382.9V12582.9H16205.4H15186.1V12782.9H16405.4H16605.4V12582.9V1137.31V937.312H16405.4H14015.2Z" fill="black"/>
<path id="r2" fill-rule="evenodd" clip-rule="evenodd" d="M17800.2 8954.02H17600.2V9154.02V11270.9H17800.2V9354.02V9154.02H18000.2H29031.1H29231.1V9354.02V12400.1V12600.1H29031.1H18000.2H17800.2V12400.1V12392H17600.2V12600.1V12800.1H17800.2H29231.1H29431.1V12600.1V9154.02V8954.02H29231.1H17800.2Z" fill="black"/>
<path id="Subtract_5" fill-rule="evenodd" clip-rule="evenodd" d="M1179.32 8940.3H1173.54H973.545V9140.3V12594.7V12794.7H1173.54H4424.51H4624.51V12594.7V9140.3V8940.3H4424.51H2799.03V9140.3H4224.51H4424.51V9340.3V12394.7V12594.7H4224.51H1373.54H1173.54V12394.7V9340.3V9140.3H1179.32V8940.3Z" fill="black"/>
<rect id="r2max" x="24577.4" y="9152.07" width="3450" height="3450" fill="white"/>
<rect id="r1max" x="14010.3" y="1128.34" width="2400" height="2400" fill="white"/>
<rect id="r1min" x="14610.3" y="1728.34" width="1200" height="1200" fill="white"/>
<rect id="r3max" x="23377.4" y="14007.3" width="2400" height="2400" fill="white"/>
<rect id="r5max" x="14000" y="22145.5" width="2400" height="2400" fill="white"/>
<rect id="r6max" x="1209.85" y="17819.5" width="6721.19" height="6721.19" fill="white"/>
<rect id="r7max" x="5815.73" y="14000" width="2400" height="2400" fill="white"/>
<rect id="r8max" x="5815.73" y="7308.32" width="5281.86" height="5281.86" fill="white"/>
<rect id="r3min" x="23977.4" y="14607.3" width="1200" height="1200" fill="white"/>
<rect id="r2min" x="25439.9" y="10014.6" width="1725" height="1725" fill="white"/>
<rect id="r7min" x="6415.73" y="14600" width="1200" height="1200" fill="white"/>
<rect id="r8min" x="7136.19" y="8628.79" width="2640.93" height="2640.93" fill="white"/>
<rect id="r6min" x="2890.14" y="19499.8" width="3360.59" height="3360.59" fill="white"/>
<rect id="r5min" x="14600" y="22745.5" width="1200" height="1200" fill="white"/>
<path id="r4" fill-rule="evenodd" clip-rule="evenodd" d="M18583.5 17606.7H17795.2H17600.2V17801.7V29252.5V29447.5H17795.2H29231H29426V29252.5V17801.7V17606.7H29231H19759.9V17801.7H29036H29231V17996.7V29057.5V29252.5H29036H17990.2H17795.2V29057.5V17996.7V17801.7H17990.2H18583.5V17606.7Z" fill="black"/>
<rect id="r4max" x="17794.6" y="17809.6" width="11442.5" height="11442.5" fill="white"/>
<rect id="r4min" x="20655.2" y="20670.2" width="5721.25" height="5721.25" fill="white"/>
</svg>
