<svg width="30300" height="30300" viewBox="0 0 30300 30300" fill="none" xmlns="http://www.w3.org/2000/svg">
<g id="plan-v4">
<rect x="75" y="75" width="30150" height="30150" fill="white"/>
<rect x="75" y="75" width="30150" height="30150" stroke="black" stroke-width="150"/>
<path id="r7" fill-rule="evenodd" clip-rule="evenodd" d="M990.086 16354.3L990.086 16554.3L1190.09 16554.3L12530.2 16554.3L12730.2 16554.3L12730.2 16354.3L12730.2 16057L12530.2 16057L12530.2 16154.3L12530.2 16354.3L12330.2 16354.3L1390.09 16354.3L1190.09 16354.3L1190.09 16154.3L1190.09 14145.7L1190.09 13945.7L1390.09 13945.7L12330.2 13945.7L12530.2 13945.7L12530.2 14145.7L12530.2 15100.5L12730.2 15100.5L12730.2 13945.7L12730.2 13745.7L12530.2 13745.7L1190.09 13745.7L990.086 13745.7L990.086 13945.7L990.086 16354.3Z" fill="black"/>
<path id="r3" fill-rule="evenodd" clip-rule="evenodd" d="M29381.9 13958.2L29381.9 13758.2L29181.9 13758.2L17779.3 13758.2L17579.3 13758.2L17579.3 13958.2L17579.3 14681.5L17779.3 14681.5L17779.3 14158.2L17779.3 13958.2L17979.3 13958.2L28981.9 13958.2L29181.9 13958.2L29181.9 14158.2L29181.9 16157.5L29181.9 16357.5L28981.9 16357.5L17979.3 16357.5L17779.3 16357.5L17779.3 16157.5L17779.3 15634.3L17579.3 15634.3L17579.3 16357.5L17579.3 16557.5L17779.3 16557.5L29181.9 16557.5L29381.9 16557.5L29381.9 16357.5L29381.9 13958.2Z" fill="black"/>
<path id="Subtract" fill-rule="evenodd" clip-rule="evenodd" d="M21948.7 4719.5L21948.7 4519.5L21748.7 4519.5L20872.9 4519.5L20872.9 4719.5L21548.7 4719.5L21748.7 4719.5L21748.7 4919.5L21748.7 7534.2L21748.7 7734.2L21548.7 7734.2L17974.3 7734.2L17774.3 7734.2L17774.3 7534.2L17774.3 4919.5L17774.3 4719.5L17974.3 4719.5L18650 4719.5L18650 4519.5L17774.3 4519.5L17574.3 4519.5L17574.3 4719.5L17574.3 7734.2L17574.3 7934.2L17774.3 7934.2L21748.7 7934.2L21948.7 7934.2L21948.7 7734.2L21948.7 4719.5Z" fill="black"/>
<path id="Subtract_2" fill-rule="evenodd" clip-rule="evenodd" d="M29156.6 2979.39L29356.6 2979.39L29356.6 1086.47L29356.6 886.469L29156.6 886.469L23142.5 886.469L22942.5 886.469L22942.5 1086.47L22942.5 7746.53L22942.5 7946.53L23142.5 7946.53L29156.6 7946.53L29356.6 7946.53L29356.6 7746.53L29356.6 5853.63L29156.6 5853.63L29156.6 7546.53L29156.6 7746.53L28956.6 7746.53L23342.5 7746.53L23142.5 7746.53L23142.5 7546.53L23142.5 1286.47L23142.5 1086.47L23342.5 1086.47L28956.6 1086.47L29156.6 1086.47L29156.6 1286.47L29156.6 2979.39Z" fill="black"/>
<path id="r5" fill-rule="evenodd" clip-rule="evenodd" d="M13750 24492.2L13750 24692.2L13950 24692.2L16350 24692.2L16550 24692.2L16550 24492.2L16550 17795.4L16550 17595.4L16350 17595.4L16007.1 17595.4L16007.1 17795.4L16150 17795.4L16350 17795.4L16350 17995.4L16350 24292.2L16350 24492.2L16150 24492.2L14150 24492.2L13950 24492.2L13950 24292.2L13950 17995.4L13950 17795.4L14150 17795.4L15054 17795.4L15054 17595.4L13950 17595.4L13750 17595.4L13750 17795.4L13750 24492.2Z" fill="black"/>
<path id="r6" fill-rule="evenodd" clip-rule="evenodd" d="M11260.1 17545H1157.21H957.207V17745V24508.2V24708.2H1157.21H12562.4H12762.4V24508.2V17745V17545H12562.4V17745V17945L12562.4 18083.1L12562.4 24308.2V24508.2H12362.4H1357.21H1157.21V24308.2V17945V17745H1357.21H11260.1V17545Z" fill="black"/>
<path id="Subtract_3" fill-rule="evenodd" clip-rule="evenodd" d="M1110.63 25696H910.629V25896V29223.1V29423.1H1110.63H3817.48V29223.1H1310.63H1110.63V29023.1V26096V25896H1310.63H16160H16360V26096V29023.1V29223.1H16160H8450.09V29423.1H16360H16560V29223.1V25896V25696H16360H1110.63Z" fill="black"/>
<path id="Subtract_4" fill-rule="evenodd" clip-rule="evenodd" d="M1165.22 888.551H965.225V1088.55V5854.83V6054.83H1165.22H3067.84V5854.83H1365.22H1165.22V5654.83V1288.55V1088.55H1365.22H12304.4H12504.4V1288.55V5654.83V5854.83H12304.4H5172.26V6054.83H12504.4H12704.4V5854.83V1088.55V888.551H12504.4H1165.22Z" fill="black"/>
<path id="r8" fill-rule="evenodd" clip-rule="evenodd" d="M5763.74 7057.8H5563.74V7257.8V12544.7V12744.7H5763.74H11120.3V12544.7H5963.74H5763.74V12344.7V7457.8V7257.8H5963.74H12364.5H12564.5V7457.8V12344.7V12544.7H12364.5H12067.8V12744.7H12564.5H12764.5V12544.7V7257.8V7057.8H12564.5H5763.74Z" fill="black"/>
<path id="r1" fill-rule="evenodd" clip-rule="evenodd" d="M13965.2 887.312H13765.2V1087.31V12532.9V12732.9H13965.2H14204.7V12532.9H14165.2H13965.2V12332.9V1287.31V1087.31H14165.2H16155.4H16355.4V1287.31V12332.9V12532.9H16155.4H15136.1V12732.9H16355.4H16555.4V12532.9V1087.31V887.312H16355.4H13965.2Z" fill="black"/>
<path id="r2" fill-rule="evenodd" clip-rule="evenodd" d="M17750.2 8904.02H17550.2V9104.02V11220.9H17750.2V9304.02V9104.02H17950.2H28981.1H29181.1V9304.02V12350.1V12550.1H28981.1H17950.2H17750.2V12350.1V12342H17550.2V12550.1V12750.1H17750.2H29181.1H29381.1V12550.1V9104.02V8904.02H29181.1H17750.2Z" fill="black"/>
<path id="Subtract_5" fill-rule="evenodd" clip-rule="evenodd" d="M1129.32 8890.3H1123.54H923.545V9090.3V12544.7V12744.7H1123.54H4374.51H4574.51V12544.7V9090.3V8890.3H4374.51H2749.03V9090.3H4174.51H4374.51V9290.3V12344.7V12544.7H4174.51H1323.54H1123.54V12344.7V9290.3V9090.3H1129.32V8890.3Z" fill="black"/>
<rect id="r2max" x="24527.4" y="9102.07" width="3450" height="3450" fill="white"/>
<rect id="r1mx" x="13960.3" y="1078.34" width="2400" height="2400" fill="white"/>
<rect id="r1min" x="14560.3" y="1678.34" width="1200" height="1200" fill="white"/>
<rect id="r3max" x="23327.4" y="13957.3" width="2400" height="2400" fill="white"/>
<rect id="r5max" x="13950" y="22095.5" width="2400" height="2400" fill="white"/>
<rect id="r6max" x="4780.12" y="22495.5" width="2000" height="2000" fill="white"/>
<rect id="r7max" x="2174.51" y="13950" width="2400" height="2400" fill="white"/>
<rect id="r8max" x="5765.73" y="7254.32" width="1500" height="1500" fill="white"/>
<rect id="r3min" x="23927.4" y="14557.3" width="1200" height="1200" fill="white"/>
<rect id="r2min" x="25389.9" y="9964.57" width="1725" height="1725" fill="white"/>
<rect id="r7min" x="2774.51" y="14550" width="1200" height="1200" fill="white"/>
<rect id="r8min" x="6140.73" y="7629.32" width="750" height="750" fill="white"/>
<rect id="r6min" x="5280.12" y="22995.5" width="1000" height="1000" fill="white"/>
<rect id="r5min" x="14550" y="22695.5" width="1200" height="1200" fill="white"/>
<path id="r4" fill-rule="evenodd" clip-rule="evenodd" d="M18533.5 17556.7H17745.2H17550.2V17751.7V29202.5V29397.5H17745.2H29181H29376V29202.5V17751.7V17556.7H29181H19709.9V17751.7H28986H29181V17946.7V29007.5V29202.5H28986H17940.2H17745.2V29007.5V17946.7V17751.7H17940.2H18533.5V17556.7Z" fill="black"/>
<rect id="r4max" x="23688.9" y="23822" width="4500" height="4500" fill="white"/>
<rect id="r4min" x="24813.9" y="24947" width="2250" height="2250" fill="white"/>
</g>
</svg>
